<svg width="38" height="20" viewBox="0 0 38 20" fill="none" xmlns="http://www.w3.org/2000/svg">
<path d="M29.8 9.98134L33.1 6.68134L34.0426 7.624L29.8 11.8667L25.5573 7.624L26.5 6.68134L29.8 9.98134Z" fill="white"/>
<path d="M16.2 18H3.40002V16.4C3.40002 15.3391 3.82145 14.3217 4.5716 13.5716C5.32174 12.8214 6.33916 12.4 7.40002 12.4H12.2C13.2609 12.4 14.2783 12.8214 15.0285 13.5716C15.7786 14.3217 16.2 15.3391 16.2 16.4V18ZM9.80002 10.8C9.16968 10.8 8.54551 10.6759 7.96314 10.4346C7.38078 10.1934 6.85163 9.83985 6.40591 9.39412C5.96019 8.9484 5.60663 8.41926 5.3654 7.83689C5.12418 7.25453 5.00002 6.63036 5.00002 6.00001C5.00002 5.36967 5.12418 4.74549 5.3654 4.16313C5.60663 3.58077 5.96019 3.05162 6.40591 2.6059C6.85163 2.16018 7.38078 1.80661 7.96314 1.56539C8.54551 1.32417 9.16968 1.20001 9.80002 1.20001C11.0731 1.20001 12.294 1.70573 13.1941 2.6059C14.0943 3.50607 14.6 4.72697 14.6 6.00001C14.6 7.27305 14.0943 8.49395 13.1941 9.39412C12.294 10.2943 11.0731 10.8 9.80002 10.8Z" fill="white"/>
<path d="M9.80002 10.8C9.16968 10.8 8.54551 10.6759 7.96314 10.4346C7.38078 10.1934 6.85163 9.83985 6.40591 9.39412C5.96019 8.9484 5.60663 8.41926 5.3654 7.83689C5.12418 7.25453 5.00002 6.63036 5.00002 6.00001C5.00002 5.36967 5.12418 4.74549 5.3654 4.16313C5.60663 3.58077 5.96019 3.05162 6.40591 2.6059C6.85163 2.16018 7.38078 1.80661 7.96314 1.56539C8.54551 1.32417 9.16968 1.20001 9.80002 1.20001C11.0731 1.20001 12.294 1.70573 13.1941 2.6059C14.0943 3.50607 14.6 4.72697 14.6 6.00001C14.6 7.27305 14.0943 8.49395 13.1941 9.39412C12.294 10.2943 11.0731 10.8 9.80002 10.8Z" fill="#7878FE"/>
</svg>
