<svg width="41" height="40" viewBox="0 0 41 40" fill="none" xmlns="http://www.w3.org/2000/svg">
<path fill-rule="evenodd" clip-rule="evenodd" d="M18.7174 0.0940346C16.2304 0.371949 14.479 0.784249 12.6276 1.52781C2.03664 5.78138 -2.92924 18.2677 1.95053 28.375C2.70654 29.9406 2.59959 29.8855 3.04847 28.942C4.62527 25.6289 7.72551 23.276 11.0323 22.8828C11.6029 22.815 23.2308 22.6542 23.2908 22.7133C23.3268 22.7489 22.9321 23.3957 22.2185 24.4697C19.8105 28.0951 17.6585 29.7422 14.5613 30.3308C14.212 30.3974 13.1662 30.4518 11.4944 30.4901C7.8632 30.5737 7.04343 30.8082 5.2634 32.2719C4.64508 32.78 4.61307 32.6946 5.9023 33.9717C17.5585 45.5173 37.4624 39.3826 40.2748 23.3776C42.2098 12.365 34.6002 1.99244 23.3144 0.259666C22.3925 0.118168 19.45 0.0119811 18.7174 0.0940346ZM36.1932 12.2984C36.1932 12.3286 36.0695 12.5954 35.9181 12.8911C34.0436 16.5565 31.0175 19.0476 27.4905 19.8285C26.9697 19.9438 26.4258 19.952 20.3732 19.9352C13.436 19.9162 12.1325 19.9543 11.4121 20.1979C10.4732 20.5157 9.6168 21.1889 9.03583 22.0658C8.72006 22.5426 8.72107 22.5431 8.49193 21.7155C7.96989 19.829 8.65629 17.3273 10.2394 15.3486C11.359 13.9491 13.3222 12.8489 15.5302 12.3832C16.1818 12.2458 36.1932 12.1638 36.1932 12.2984Z" fill="#01037C"/>
<path fill-rule="evenodd" clip-rule="evenodd" d="M20.037 0.033319C20.162 0.0488151 20.384 0.0490689 20.5301 0.0338267C20.6764 0.0185846 20.574 0.00588298 20.3027 0.00537491C20.0314 0.00512088 19.9118 0.0175688 20.037 0.033319ZM34.1708 12.2964C34.5508 12.3091 35.1534 12.3088 35.5098 12.2961C35.8662 12.2834 35.5555 12.273 34.8191 12.273C34.0826 12.2732 33.791 12.2837 34.1708 12.2964ZM17.4664 22.7939C17.5729 22.8099 17.7474 22.8099 17.8541 22.7939C17.9605 22.7776 17.8734 22.7644 17.6603 22.7644C17.4471 22.7644 17.3597 22.7776 17.4664 22.7939ZM34.7451 34.0357L34.4667 34.3352L34.7662 34.0568C35.0446 33.7977 35.098 33.7362 35.0446 33.7362C35.0332 33.7362 34.8983 33.8711 34.7451 34.0357ZM19.6509 39.986C19.7187 40.0037 19.8297 40.0037 19.8975 39.986C19.9654 39.9682 19.91 39.9537 19.7743 39.9537C19.6387 39.9537 19.583 39.9682 19.6509 39.986ZM20.7783 39.986C20.8461 40.0037 20.9571 40.0037 21.0249 39.986C21.0928 39.9682 21.0374 39.9537 20.9017 39.9537C20.7661 39.9537 20.7105 39.9682 20.7783 39.986Z" fill="white"/>
<path fill-rule="evenodd" clip-rule="evenodd" d="M19.4756 0.0322925C19.5633 0.0490588 19.69 0.0482975 19.7573 0.0307691C19.8249 0.0129866 19.753 -0.000731831 19.5981 3.02745e-05C19.4431 0.00079238 19.388 0.0152721 19.4756 0.0322925ZM20.885 0.0322925C20.9726 0.0490588 21.0994 0.0482975 21.1667 0.0307691C21.2341 0.0129866 21.1624 -0.000731831 21.0075 3.02745e-05C20.8525 0.00079238 20.7974 0.0152721 20.885 0.0322925ZM34.2554 5.47881C34.4462 5.67264 34.6182 5.83116 34.6375 5.83116C34.657 5.83116 34.5165 5.67264 34.3258 5.47881C34.135 5.28498 33.963 5.12646 33.9434 5.12646C33.9241 5.12646 34.0644 5.28498 34.2554 5.47881ZM35.3828 6.60622C35.5342 6.76118 35.6739 6.8882 35.6932 6.8882C35.7125 6.8882 35.6046 6.76118 35.4532 6.60622C35.3018 6.45126 35.162 6.32449 35.1427 6.32449C35.1234 6.32449 35.2314 6.45126 35.3828 6.60622ZM5.00678 6.83536L4.8 7.06424L5.02888 6.85746C5.15488 6.7434 5.25802 6.64051 5.25802 6.62832C5.25802 6.57396 5.19985 6.62171 5.00678 6.83536ZM20.6782 12.2966C23.055 12.3068 26.9237 12.3068 29.2753 12.2966C31.6266 12.2862 29.682 12.2778 24.9536 12.2778C20.2253 12.2778 18.3012 12.2862 20.6782 12.2966ZM10.717 14.8685L10.2963 15.309L10.7368 14.8885C10.9789 14.6571 11.1773 14.459 11.1773 14.448C11.1773 14.396 11.1077 14.4595 10.717 14.8685ZM33.2337 16.507C32.9448 16.7976 32.7243 17.0354 32.7439 17.0354C32.7632 17.0354 33.0152 16.7976 33.304 16.507C33.5929 16.2164 33.8131 15.9783 33.7938 15.9783C33.7742 15.9783 33.5222 16.2164 33.2337 16.507ZM0.0635088 18.4095C0.0640169 18.6033 0.0777355 18.6742 0.0939938 18.5672C0.109998 18.46 0.109745 18.3015 0.0929782 18.2149C0.0762119 18.1282 0.0630008 18.2159 0.0635088 18.4095ZM40.5786 18.7267C40.5786 18.8624 40.5931 18.9178 40.6109 18.85C40.6284 18.7821 40.6284 18.6711 40.6109 18.6033C40.5931 18.5355 40.5786 18.5911 40.5786 18.7267ZM0 19.9951C0 20.4796 0.0111773 20.6777 0.0251492 20.4356C0.0388672 20.1933 0.0388672 19.797 0.0251492 19.5547C0.0111773 19.3126 0 19.5107 0 19.9951ZM8.38393 20.3475C8.38393 20.7156 8.39587 20.8662 8.41035 20.6821C8.42483 20.4981 8.42483 20.1969 8.41035 20.0127C8.39587 19.8285 8.38393 19.9791 8.38393 20.3475ZM15.8861 19.907C17.1387 19.9177 19.1682 19.9177 20.396 19.907C21.6237 19.8961 20.5987 19.8874 18.1183 19.8874C15.6379 19.8874 14.6332 19.8961 15.8861 19.907ZM9.65944 21.2107L9.30989 21.5806L9.67976 21.231C10.0235 20.9059 10.0822 20.8408 10.0296 20.8408C10.0184 20.8408 9.85174 21.0072 9.65944 21.2107ZM40.5786 21.2635C40.5786 21.3992 40.5931 21.4546 40.6109 21.3868C40.6284 21.3189 40.6284 21.2079 40.6109 21.1401C40.5931 21.0723 40.5786 21.1279 40.5786 21.2635ZM0.0624932 21.5453C0.0624932 21.7198 0.0762119 21.7912 0.0929782 21.704C0.109999 21.6167 0.109999 21.4741 0.0929782 21.3868C0.0762119 21.2996 0.0624932 21.371 0.0624932 21.5453ZM18.9109 22.7959C19.4246 22.8081 20.2649 22.8081 20.7783 22.7959C21.292 22.7839 20.8718 22.774 19.8447 22.774C18.8177 22.774 18.3975 22.7839 18.9109 22.7959ZM11.7245 22.865C11.8513 22.8805 12.0415 22.8802 12.1475 22.8642C12.2534 22.848 12.1497 22.8353 11.9171 22.8355C11.6846 22.836 11.598 22.8492 11.7245 22.865ZM5.25802 25.8087C5.0868 25.983 4.96258 26.1258 4.98189 26.1258C5.00145 26.1258 5.15717 25.983 5.32839 25.8087C5.49961 25.6342 5.62383 25.4915 5.60427 25.4915C5.58497 25.4915 5.42899 25.6342 5.25802 25.8087ZM19.7022 27.5174L19.1047 28.1342L19.7213 27.5367C20.2941 26.9819 20.3701 26.9008 20.3188 26.9008C20.3083 26.9008 20.0307 27.1783 19.7022 27.5174ZM1.88139 28.4159C1.88139 28.4548 1.9421 28.5973 2.01653 28.7329C2.09071 28.8686 2.15143 28.9481 2.15143 28.9092C2.15143 28.8704 2.09071 28.7279 2.01653 28.5922C1.9421 28.4566 1.88139 28.3773 1.88139 28.4159ZM13.3793 30.4025C13.4471 30.42 13.5581 30.42 13.6259 30.4025C13.6938 30.3847 13.6384 30.3702 13.5027 30.3702C13.3671 30.3702 13.3115 30.3847 13.3793 30.4025ZM9.85682 30.4749C9.96403 30.4911 10.1225 30.4906 10.2092 30.4739C10.2958 30.4571 10.2082 30.4439 10.0146 30.4444C9.82075 30.4449 9.74988 30.4586 9.85682 30.4749ZM35.3785 33.4016L35.1714 33.6305L35.4003 33.4237C35.5263 33.3096 35.6295 33.2068 35.6295 33.1946C35.6295 33.1402 35.5713 33.188 35.3785 33.4016ZM34.1815 34.5994L33.903 34.8989L34.2026 34.6205C34.481 34.3614 34.5343 34.2999 34.481 34.2999C34.4695 34.2999 34.3346 34.4348 34.1815 34.5994ZM19.0882 39.988C19.1952 40.0042 19.3539 40.0037 19.4406 39.987C19.5272 39.9702 19.4395 39.957 19.2457 39.9575C19.0519 39.958 18.981 39.9717 19.0882 39.988ZM21.2727 39.988C21.3799 40.0042 21.5384 40.0037 21.625 39.987C21.7116 39.9702 21.624 39.957 21.4302 39.9575C21.2363 39.958 21.1655 39.9717 21.2727 39.988Z" fill="white"/>
<path fill-rule="evenodd" clip-rule="evenodd" d="M6.03307 5.79586C5.86185 5.97038 5.73762 6.11289 5.75718 6.11289C5.77649 6.11289 5.93247 5.97038 6.10344 5.79586C6.27466 5.62159 6.39888 5.47882 6.37957 5.47882C6.36001 5.47882 6.20429 5.62159 6.03307 5.79586ZM35.2771 6.55796C35.2771 6.5699 35.3802 6.67304 35.506 6.78685L35.7351 6.99389L35.5281 6.76475C35.3353 6.55136 35.2771 6.50335 35.2771 6.55796ZM10.6801 14.8334L10.4373 15.0976L10.7015 14.8548C10.9474 14.6287 10.9982 14.5692 10.9443 14.5692C10.9326 14.5692 10.8138 14.6881 10.6801 14.8334ZM33.2662 16.5598L32.9164 16.9297L33.2865 16.5802C33.6302 16.2553 33.6886 16.19 33.636 16.19C33.6249 16.19 33.4585 16.3564 33.2662 16.5598ZM40.5095 18.3391C40.5102 18.4941 40.5247 18.5492 40.5415 18.4616C40.5582 18.3739 40.5577 18.2471 40.5402 18.1798C40.5224 18.1123 40.5087 18.1841 40.5095 18.3391ZM0.0634907 19.1848C0.0639988 19.3786 0.0777174 19.4495 0.0939757 19.3423C0.10998 19.2351 0.109726 19.0766 0.0929601 18.9899C0.0761938 18.9033 0.0629827 18.991 0.0634907 19.1848ZM40.5887 19.9952C40.5887 20.4407 40.6002 20.6231 40.6141 20.4004C40.6281 20.1776 40.6281 19.8128 40.6141 19.59C40.6002 19.3672 40.5887 19.5493 40.5887 19.9952ZM12.7815 19.9756C12.9083 19.9914 13.0986 19.9911 13.2045 19.9751C13.3102 19.9588 13.2068 19.9461 12.9741 19.9464C12.7416 19.9469 12.655 19.9601 12.7815 19.9756ZM24.2314 19.9771C24.648 19.9896 25.3296 19.9896 25.7465 19.9771C26.1631 19.9647 25.8222 19.9545 24.9889 19.9545C24.1554 19.9545 23.8148 19.9647 24.2314 19.9771ZM8.30719 20.3475C8.30719 20.5218 8.32091 20.5932 8.33768 20.506C8.35444 20.4189 8.35444 20.2761 8.33768 20.189C8.32091 20.1016 8.30719 20.173 8.30719 20.3475ZM0.0634907 20.8055C0.0639988 20.9994 0.0777174 21.0702 0.0939757 20.963C0.10998 20.8558 0.109726 20.6973 0.0929601 20.6107C0.0761938 20.5241 0.0629827 20.6117 0.0634907 20.8055ZM40.5079 21.6159C40.5079 21.7516 40.5224 21.8069 40.5402 21.7391C40.558 21.6713 40.558 21.5603 40.5402 21.4925C40.5224 21.4246 40.5079 21.4803 40.5079 21.6159ZM21.8882 22.7187C22.4671 22.7702 23.2978 22.7746 23.2978 22.7258C23.2976 22.6966 22.9249 22.6783 22.4697 22.6846C22.0142 22.6912 21.7525 22.7065 21.8882 22.7187ZM15.5673 22.7959C15.9082 22.8089 16.4472 22.8089 16.7653 22.7957C17.0831 22.7827 16.8039 22.772 16.1452 22.7723C15.4862 22.7723 15.2264 22.783 15.5673 22.7959ZM19.7017 27.588L19.2457 28.0636L19.7213 27.6076C19.9829 27.3569 20.1971 27.1427 20.1971 27.132C20.1971 27.0802 20.1252 27.1463 19.7017 27.588ZM11.3747 30.4769C11.774 30.4894 12.4083 30.4894 12.7841 30.4769C13.1598 30.4642 12.8331 30.4538 12.058 30.4538C11.283 30.4541 10.9753 30.4642 11.3747 30.4769ZM9.18743 30.5445C9.27507 30.5615 9.40183 30.5608 9.46915 30.5432C9.53647 30.5254 9.46483 30.5117 9.30987 30.5125C9.15465 30.5132 9.09953 30.5277 9.18743 30.5445ZM5.32837 33.4738C5.32837 33.4844 5.57403 33.7301 5.87455 34.02L6.42072 34.5466L5.89385 34.0006C5.40458 33.4933 5.32837 33.4222 5.32837 33.4738ZM33.9691 34.7404L33.762 34.9695L33.9909 34.7625C34.1169 34.6487 34.2201 34.5455 34.2201 34.5334C34.2201 34.479 34.1619 34.527 33.9691 34.7404ZM18.6299 39.9169C18.7176 39.9336 18.8443 39.9331 18.9119 39.9154C18.9792 39.8978 18.9076 39.8839 18.7524 39.8846C18.5974 39.8856 18.5423 39.8999 18.6299 39.9169ZM21.801 39.9169C21.8887 39.9336 22.0154 39.9331 22.0828 39.9154C22.1503 39.8978 22.0784 39.8839 21.9235 39.8846C21.7685 39.8856 21.7134 39.8999 21.801 39.9169ZM20.1442 39.988C20.2507 40.004 20.4252 40.004 20.5319 39.988C20.6383 39.9717 20.5512 39.9585 20.3381 39.9585C20.1249 39.9585 20.0375 39.9717 20.1442 39.988Z" fill="white"/>
</svg>
